<svg version="1.1" xmlns="http://www.w3.org/2000/svg" viewBox="0 0 1435 544.7924528301887" width="1435" height="544.7924528301887">
  <!-- svg-source:excalidraw -->
  
  <defs>
    <style>
      @font-face {
        font-family: "Virgil";
        src: url("https://excalidraw.com/Virgil.woff2");
      }
      @font-face {
        font-family: "Cascadia";
        src: url("https://excalidraw.com/Cascadia.woff2");
      }
    </style>
  </defs>
  <rect x="0" y="0" width="1435" height="544.7924528301887" fill="#ffffff"></rect><g stroke-linecap="round" transform="translate(10 220.79245283018867) rotate(0 79.5 76.5)"><path d="M0.86 -1.96 C51.95 -0.36, 105.71 -0.31, 157.31 -1.35 M0.58 -0.76 C59.53 -1.2, 120.41 -1.37, 159.72 0.34 M157.63 0.34 C159.91 46.33, 159.2 93.41, 157.99 153.31 M158.27 -0.16 C160.75 42.15, 159.28 84.5, 158.48 152.81 M160.93 154.2 C121.09 150.59, 81.29 152.32, 0.39 152.91 M159.87 153.63 C124.43 154.32, 91.28 153.42, 0.24 152.75 M-0.44 154.59 C-0.66 104.8, 0.05 53.97, 1.64 -0.65 M0.71 153.57 C0.9 107.57, 0.64 61.28, -0.93 0.81" stroke="#000000" stroke-width="1" fill="none"></path></g><g stroke-linecap="round" transform="translate(667 211.79245283018867) rotate(0 79.5 76.5)"><path d="M-1.07 -0.28 C48.43 0.21, 95.17 -1.07, 158.86 1.68 M-0.49 0.81 C37.09 0.33, 73.8 1.41, 158.49 -0.75 M159.67 1.53 C157.39 42.9, 160.64 82.8, 158.78 153.03 M158.23 -0.56 C159.91 58.47, 158.97 118.14, 159.94 152.95 M160.83 151.29 C126.9 151.43, 91.48 152.11, 0.39 154.61 M158.74 152.44 C110.16 151.02, 62.43 151.37, -0.46 152.19 M-1.75 152.5 C0.84 114.44, -1.56 72.15, -1.57 -0.23 M-0.43 152.39 C0.88 113.71, 1.43 75.08, -0.52 -0.47" stroke="#000000" stroke-width="1" fill="none"></path></g><g stroke-linecap="round" transform="translate(668 79) rotate(0 63 40.89622641509434)"><path d="M-0.76 1 C46.31 -0.86, 94.51 1.45, 125.94 -1.68 M0.21 0.55 C44.1 1.49, 90.39 0.52, 125.43 0.03 M127.2 1.43 C124.42 20.19, 125.08 39.39, 126.22 79.82 M126.32 -0.95 C125.99 27.66, 126.31 56.08, 126.82 82.18 M126.6 80.51 C76.61 81.58, 27.18 83.18, -1.32 82.73 M125.12 81.52 C97.12 82.34, 66.33 80.88, 0 82.77 M-1.48 79.84 C-0.53 58.23, 2.35 35.86, -0.3 0.16 M0.55 82.48 C-0.84 51.71, 0.98 22.43, -0.9 0.08" stroke="#000000" stroke-width="1" fill="none"></path></g><g stroke-linecap="round" transform="translate(829 10) rotate(0 23.274509803921546 40.39622641509434)"><path d="M-1.33 1.93 C16.84 1.59, 34.94 -0.82, 46.4 1.11 M-0.28 0.66 C14.56 0.18, 26.53 0.33, 46.56 -0.13 M48.49 1.86 C47.91 24.99, 47.3 51.63, 46.96 80.08 M46.04 -0.12 C46.03 27.64, 46.29 55.35, 46.4 81.68 M44.84 81.94 C33.2 82.7, 14.56 78.96, 0.85 81.15 M47.48 80.22 C27.69 81.54, 10.76 80.5, -0.72 80.6 M-0.25 80.08 C0.1 57.59, -0.39 33.26, 1.02 -0.78 M-0.61 80.16 C1.28 63.2, 1.5 46.21, -0.39 -0.84" stroke="#000000" stroke-width="1" fill="none"></path></g><g stroke-linecap="round" transform="translate(378 381.79245283018867) rotate(0 79.5 76.5)"><path d="M1.26 -0.84 C46.14 0.06, 90.27 -1.4, 159.27 1.35 M-0.08 0.42 C62.96 -1.48, 125.69 0.26, 158.03 0.48 M157.67 -1.73 C159.78 52.65, 160.73 103.16, 157.14 151.09 M158.83 0.03 C159.34 38.51, 160.12 78.28, 158.09 152.05 M159.84 152.36 C118.45 154.53, 81.09 154.51, 1.78 154.35 M159.92 152.43 C95.37 152.39, 32.45 153.29, 0.82 153.46 M1.35 151.19 C2.08 113.37, 2.64 73.43, 1.69 -1.26 M0.86 153.08 C-1.28 94.14, -1.26 35.64, -0.45 0.13" stroke="#000000" stroke-width="1" fill="none"></path></g><g stroke-linecap="round"><g transform="translate(104.79999999999995 291.00749034853834) rotate(0 133.44773552060593 65.86099165459626)"><path d="M1.05 0.75 C45.4 22.64, 222.27 109.99, 266.76 131.62 M0.14 0.1 C44.23 21.66, 220.99 108.13, 265.58 130.09" stroke="#000000" stroke-width="1" fill="none"></path></g><g transform="translate(104.79999999999995 291.00749034853834) rotate(0 133.44773552060593 65.86099165459626)"><path d="M237 126.15 C248.21 129.11, 256.98 129.39, 265.08 130.56 M236.55 126.29 C244.29 127.56, 251.53 129.47, 265.26 130.12" stroke="#000000" stroke-width="1" fill="none"></path></g><g transform="translate(104.79999999999995 291.00749034853834) rotate(0 133.44773552060593 65.86099165459626)"><path d="M246.04 107.72 C254.09 117.3, 259.65 124.11, 265.08 130.56 M245.59 107.86 C250.83 114, 255.68 120.8, 265.26 130.12" stroke="#000000" stroke-width="1" fill="none"></path></g></g><g transform="translate(34 287.29245283018867) rotate(0 29.5 12)"><text x="0" y="17" font-family="Virgil, Segoe UI Emoji" font-size="19.200000000000006px" fill="#000000" text-anchor="start" style="white-space: pre;" direction="ltr">test.c</text></g><g transform="translate(705 262.29245283018867) rotate(0 29.5 24)"><text x="0" y="17" font-family="Virgil, Segoe UI Emoji" font-size="19.200000000000006px" fill="#000000" text-anchor="start" style="white-space: pre;" direction="ltr">test.o</text><text x="0" y="41" font-family="Virgil, Segoe UI Emoji" font-size="19.200000000000006px" fill="#000000" text-anchor="start" style="white-space: pre;" direction="ltr"></text></g><g transform="translate(424 407.29245283018867) rotate(0 29.5 12)"><text x="0" y="17" font-family="Virgil, Segoe UI Emoji" font-size="19.200000000000006px" fill="#000000" text-anchor="start" style="white-space: pre;" direction="ltr">test.s</text></g><g stroke-linecap="round"><g transform="translate(167 141.79245283018867) rotate(0 -34.7524956253078 61.780498436093325)"><path d="M-0.86 -0.52 C-12.7 20.36, -58.24 103.62, -69.99 124.08 M0.9 1.83 C-11.12 22.49, -58.21 102.3, -70.4 122.52" stroke="#000000" stroke-width="1" fill="none"></path></g><g transform="translate(167 141.79245283018867) rotate(0 -34.7524956253078 61.780498436093325)"><path d="M-65.65 94.74 C-65.48 103.98, -70.73 116.6, -70.96 122.2 M-64.06 92.84 C-66.45 103.83, -69.57 112.14, -69.9 122.93" stroke="#000000" stroke-width="1" fill="none"></path></g><g transform="translate(167 141.79245283018867) rotate(0 -34.7524956253078 61.780498436093325)"><path d="M-48.02 105.24 C-54.64 110.24, -66.79 118.77, -70.96 122.2 M-46.42 103.33 C-54.68 110.91, -63.72 115.69, -69.9 122.93" stroke="#000000" stroke-width="1" fill="none"></path></g></g><g transform="translate(163 109.29245283018868) rotate(0 25 17.5)"><text x="0" y="25" font-family="Virgil, Segoe UI Emoji" font-size="28px" fill="#000000" text-anchor="start" style="white-space: pre;" direction="ltr">HLL</text></g><g transform="translate(214 116.79245283018868) rotate(0 80.5 10)"><text x="0" y="14" font-family="Virgil, Segoe UI Emoji" font-size="16px" fill="#862e9c" text-anchor="start" style="white-space: pre;" direction="ltr">- High level language</text></g><g transform="translate(133 77.29245283018868) rotate(0 164.5 12.5)"><text x="0" y="18" font-family="Virgil, Segoe UI Emoji" font-size="20px" fill="#a61e4d" text-anchor="start" style="white-space: pre;" direction="ltr">(Python, JS, C#, Rust, C++/C ...)</text></g><g transform="translate(185.16670574369004 374.23107071094535) rotate(25.699644300273214 65.5 12.5)"><text x="0" y="18" font-family="Virgil, Segoe UI Emoji" font-size="20px" fill="#364fc7" text-anchor="start" style="white-space: pre;" direction="ltr">gcc -S test.c</text></g><g transform="translate(383 445.79245283018867) rotate(0 74.5 12.5)"><text x="74.5" y="18" font-family="Virgil, Segoe UI Emoji" font-size="20px" fill="#862e9c" text-anchor="middle" style="white-space: pre;" direction="ltr">x86 Assembly</text></g><g transform="translate(223.86472857243962 335.4149606000734) rotate(24.51964268819078 40.5 12.5)"><text x="0" y="18" font-family="Virgil, Segoe UI Emoji" font-size="20px" fill="#862e9c" text-anchor="start" style="white-space: pre;" direction="ltr">Compiling</text></g><g stroke-linecap="round"><g transform="translate(544 436.79245283018867) rotate(0 62.61309780665209 -70.9457750976132)"><path d="M-1.13 0.04 C19.7 -23.35, 103.05 -116.54, 124.11 -140.22 M0.47 -0.98 C21.75 -24.73, 105.67 -118.55, 126.36 -141.93" stroke="#000000" stroke-width="1" fill="none"></path></g><g transform="translate(544 436.79245283018867) rotate(0 62.61309780665209 -70.9457750976132)"><path d="M115.35 -115.54 C119.06 -119.87, 118.54 -125.72, 124.42 -142.87 M114.89 -114.97 C117.23 -121.31, 121.44 -128.63, 125.74 -141.14" stroke="#000000" stroke-width="1" fill="none"></path></g><g transform="translate(544 436.79245283018867) rotate(0 62.61309780665209 -70.9457750976132)"><path d="M100.02 -129.18 C107.24 -130.26, 110.21 -133.01, 124.42 -142.87 M99.56 -128.62 C105.93 -131.59, 114.07 -135.4, 125.74 -141.14" stroke="#000000" stroke-width="1" fill="none"></path></g></g><g stroke-linecap="round"><g transform="translate(172 267.79245283018867) rotate(0 246.7379469554219 2.9919430168671397)"><path d="M0.8 -1.19 C82.69 -0.1, 409.31 4.79, 491.35 6.1 M-0.25 0.8 C82.05 2.05, 411.55 6, 493.72 7.17" stroke="#000000" stroke-width="1" fill="none"></path></g><g transform="translate(172 267.79245283018867) rotate(0 246.7379469554219 2.9919430168671397)"><path d="M463.42 15.98 C472.4 15.62, 481.84 9.91, 491.84 5.86 M464.84 16.96 C473.26 13.68, 481.93 12.51, 493.54 7.43" stroke="#000000" stroke-width="1" fill="none"></path></g><g transform="translate(172 267.79245283018867) rotate(0 246.7379469554219 2.9919430168671397)"><path d="M463.69 -4.54 C472.52 1.24, 481.88 1.65, 491.84 5.86 M465.11 -3.56 C473.28 -1.19, 481.88 3.3, 493.54 7.43" stroke="#000000" stroke-width="1" fill="none"></path></g></g><g transform="translate(349 271.79245283018867) rotate(0 64.5 12.5)"><text x="0" y="18" font-family="Virgil, Segoe UI Emoji" font-size="20px" fill="#364fc7" text-anchor="start" style="white-space: pre;" direction="ltr">gcc -c test.c</text></g><g transform="translate(700 308.79245283018867) rotate(0 53.5 12.5)"><text x="0" y="18" font-family="Virgil, Segoe UI Emoji" font-size="20px" fill="#862e9c" text-anchor="start" style="white-space: pre;" direction="ltr">Object File</text></g><g transform="translate(677.6415094339623 107.8553459119497) rotate(0 54.28062893081756 12.682389937106919)"><text x="0" y="17.364779874213838" font-family="Virgil, Segoe UI Emoji" font-size="20.291823899371074px" fill="#862e9c" text-anchor="start" style="white-space: pre;" direction="ltr">Object File</text></g><g transform="translate(820.5887986685257 43.96689401956456) rotate(62.8288356335348 32.166067471150654 7.036327259314202)"><text x="0" y="10.072654518628404" font-family="Virgil, Segoe UI Emoji" font-size="11.771217809919786px" fill="#862e9c" text-anchor="start" style="white-space: pre;" direction="ltr">Object File</text></g><g transform="translate(34 332.79245283018867) rotate(0 53.5 12.5)"><text x="0" y="18" font-family="Virgil, Segoe UI Emoji" font-size="20px" fill="#862e9c" text-anchor="start" style="white-space: pre;" direction="ltr">Source File</text></g><g transform="translate(320.9993336880109 236.5856316196796) rotate(0.2604335678133755 103.5 12.5)"><text x="0" y="18" font-family="Virgil, Segoe UI Emoji" font-size="20px" fill="#862e9c" text-anchor="start" style="white-space: pre;" direction="ltr">Compile and assemble</text></g><g transform="translate(542 343.79245283018867) rotate(313.2986453946739 43 12.5)"><text x="0" y="18" font-family="Virgil, Segoe UI Emoji" font-size="20px" fill="#862e9c" text-anchor="start" style="white-space: pre;" direction="ltr">Assemble</text></g><g stroke-linecap="round"><g transform="translate(829 272.7199270664658) rotate(0 36.2840112647408 0.4106856221677049)"><path d="M0.75 0.62 C13.08 0.73, 60.87 -0.16, 72.88 -0.02 M-0.31 -0.1 C11.94 0.17, 59.87 0.41, 71.93 0.92" stroke="#000000" stroke-width="1" fill="none"></path></g><g transform="translate(829 272.7199270664658) rotate(0 36.2840112647408 0.4106856221677049)"><path d="M44.57 10.56 C47.67 8.23, 56.14 7.15, 73.67 -0.38 M44.26 11.12 C52.1 8.58, 60.84 5.17, 71.36 1.55" stroke="#000000" stroke-width="1" fill="none"></path></g><g transform="translate(829 272.7199270664658) rotate(0 36.2840112647408 0.4106856221677049)"><path d="M45 -9.95 C47.9 -7.95, 56.27 -4.7, 73.67 -0.38 M44.69 -9.4 C52.28 -5.54, 60.89 -2.55, 71.36 1.55" stroke="#000000" stroke-width="1" fill="none"></path></g></g><g stroke-linecap="round" transform="translate(923 214.79245283018867) rotate(0 106.5 61)"><path d="M116.4 -0.21 C130.18 -0.62, 145.8 3.15, 158.37 7.2 C170.94 11.26, 183.11 17.52, 191.82 24.14 C200.52 30.76, 207.47 38.63, 210.61 46.95 C213.74 55.27, 213.55 65.89, 210.64 74.04 C207.73 82.2, 201.34 89.39, 193.15 95.85 C184.96 102.31, 173.79 108.57, 161.47 112.81 C149.16 117.05, 133.8 120.19, 119.26 121.3 C104.73 122.41, 88.17 121.91, 74.26 119.45 C60.34 117, 46.46 112.09, 35.78 106.59 C25.1 101.08, 16.07 93.86, 10.17 86.41 C4.28 78.97, 0.76 70.32, 0.4 61.91 C0.03 53.5, 2.13 43.63, 7.99 35.96 C13.84 28.28, 24.57 21.21, 35.51 15.84 C46.45 10.48, 57.87 6.29, 73.62 3.79 C89.37 1.28, 118.36 0.72, 130.01 0.81 C141.66 0.89, 143.73 3.18, 143.51 4.31 M102.1 0.6 C115.93 -0.74, 132.13 0.17, 145.43 3.15 C158.73 6.13, 171.75 12.25, 181.91 18.51 C192.08 24.76, 201.5 32.75, 206.41 40.69 C211.33 48.63, 212.21 58, 211.41 66.14 C210.6 74.29, 208.17 82.46, 201.59 89.54 C195 96.61, 183.31 103.52, 171.9 108.6 C160.49 113.67, 146.97 117.92, 133.12 119.99 C119.28 122.06, 103 122.5, 88.83 121.02 C74.67 119.53, 60.08 115.78, 48.14 111.09 C36.21 106.4, 25.25 99.7, 17.23 92.89 C9.2 86.07, 2.03 78.09, -0.02 70.19 C-2.06 62.29, 0.66 53.29, 4.97 45.48 C9.27 37.68, 16.95 29.62, 25.82 23.36 C34.69 17.09, 45.45 11.76, 58.18 7.87 C70.92 3.98, 95.11 1.1, 102.25 0.03 C109.39 -1.04, 101.02 0.45, 101.03 1.44" stroke="#000000" stroke-width="1" fill="none"></path></g><g transform="translate(928 263.29245283018867) rotate(0 101.5 12.5)"><text x="101.5" y="18" font-family="Virgil, Segoe UI Emoji" font-size="20px" fill="#000000" text-anchor="middle" style="white-space: pre;" direction="ltr">Linker</text></g><g stroke-linecap="round" transform="translate(909 411.79245283018867) rotate(0 84.5 47)"><path d="M-1.32 0.48 C66.9 -1.67, 136.72 -2.18, 170.35 1.48 M0.28 -0.06 C60.17 -1.37, 119.44 -2.01, 168.21 0.47 M167.14 1.04 C168.37 21.85, 169.68 48.6, 168.43 95.56 M168.07 -0.36 C168.97 18.46, 168.92 39, 168.81 93.76 M167.85 92.94 C120.03 93.96, 72.92 94.76, 1.7 92.37 M169.99 93.04 C129.65 92.16, 87.72 93.74, -0.81 94.26 M-0.55 93.68 C0.69 68.23, 0.47 42.62, -0.8 1.7 M0.32 93.64 C-0.9 59.02, -0.54 24.94, -0.46 -0.82" stroke="#000000" stroke-width="1" fill="none"></path></g><g transform="translate(917 443.79245283018867) rotate(0 77.5 12.5)"><text x="0" y="18" font-family="Virgil, Segoe UI Emoji" font-size="20px" fill="#000000" text-anchor="start" style="white-space: pre;" direction="ltr">Program Library</text></g><g stroke-linecap="round"><g transform="translate(983.3783466299174 410.79245283018867) rotate(0 10.70710307549382 -35.67695454123279)"><path d="M-0.99 -0.72 C2.77 -12.48, 18.71 -59.23, 22.4 -71.07 M0.69 1.51 C4.31 -10.55, 17.73 -60.87, 21.52 -72.86" stroke="#000000" stroke-width="1" fill="none"></path></g><g transform="translate(983.3783466299174 410.79245283018867) rotate(0 10.70710307549382 -35.67695454123279)"><path d="M22.38 -42.73 C24.16 -53.48, 22.45 -61.56, 20.07 -72.11 M24.34 -42.23 C24.39 -48.9, 23.15 -56.63, 20.87 -73.25" stroke="#000000" stroke-width="1" fill="none"></path></g><g transform="translate(983.3783466299174 410.79245283018867) rotate(0 10.70710307549382 -35.67695454123279)"><path d="M2.66 -48.4 C10.11 -57.35, 14.1 -63.8, 20.07 -72.11 M4.62 -47.9 C8.99 -53.42, 12.13 -59.89, 20.87 -73.25" stroke="#000000" stroke-width="1" fill="none"></path></g></g><g stroke-linecap="round"><g transform="translate(1137.4432270769073 286.0028596026968) rotate(0 73.43418834117017 -0.06267206074429055)"><path d="M0.71 -0.51 C24.78 -0.5, 120.74 0.32, 144.89 0.72 M-0.38 -1.82 C24.05 -1.76, 123.04 0.84, 147.25 1.69" stroke="#000000" stroke-width="1" fill="none"></path></g><g transform="translate(1137.4432270769073 286.0028596026968) rotate(0 73.43418834117017 -0.06267206074429055)"><path d="M117.92 10 C126.51 7.88, 138.07 2.96, 145.74 2.66 M119.09 11.22 C126.41 8.12, 134.55 6.73, 147.82 2.05" stroke="#000000" stroke-width="1" fill="none"></path></g><g transform="translate(1137.4432270769073 286.0028596026968) rotate(0 73.43418834117017 -0.06267206074429055)"><path d="M118.53 -10.51 C127.02 -5.73, 138.38 -3.76, 145.74 2.66 M119.7 -9.29 C126.81 -6.85, 134.79 -2.7, 147.82 2.05" stroke="#000000" stroke-width="1" fill="none"></path></g></g><g stroke-linecap="round" transform="translate(1299 273.79245283018867) rotate(0 61 23)"><path d="M-0.97 0.75 C41.88 1.22, 81.8 -0.28, 122.7 -1.84 M-0.79 0.36 C38.07 -0.58, 76.24 0.27, 121.95 0.3 M123.48 0.78 C121.39 9.14, 120.98 19.99, 122.27 44.32 M122.94 0.85 C122.67 10.9, 120.82 22.46, 122.72 46.43 M121.12 47.94 C83.2 46.81, 48.1 47.46, 1.4 44.81 M121.7 46.54 C83.24 45.16, 45.25 44.33, 0.54 45.66 M0.43 46.5 C-0.05 30.94, 0.94 17.36, 0.9 -1.19 M-0.51 46.24 C-0.01 36.69, 0.57 26.51, -0.91 -0.54" stroke="#000000" stroke-width="1" fill="none"></path></g><g transform="translate(1304 284.29245283018867) rotate(0 56 12.5)"><text x="56" y="18" font-family="Virgil, Segoe UI Emoji" font-size="20px" fill="#000000" text-anchor="middle" style="white-space: pre;" direction="ltr">test.exe</text></g><g transform="translate(1294 331.79245283018867) rotate(0 65.5 12.5)"><text x="0" y="18" font-family="Virgil, Segoe UI Emoji" font-size="20px" fill="#862e9c" text-anchor="start" style="white-space: pre;" direction="ltr">Machine Code</text></g><g stroke-linecap="round"><g transform="translate(899 96.79245283018868) rotate(0 33.054026931379894 55.84400464020203)"><path d="M-0.71 -0.53 C9.95 18.14, 53.54 92.48, 64.41 111.13 M1.12 1.81 C12.14 20.68, 56.42 93.79, 66.82 112.22" stroke="#000000" stroke-width="1" fill="none"></path></g><g transform="translate(899 96.79245283018868) rotate(0 33.054026931379894 55.84400464020203)"><path d="M42.81 92.13 C49.88 98.87, 58.06 107.07, 68.17 112.54 M44.66 92.3 C48.92 97.3, 56.15 102.22, 65.92 112.42" stroke="#000000" stroke-width="1" fill="none"></path></g><g transform="translate(899 96.79245283018868) rotate(0 33.054026931379894 55.84400464020203)"><path d="M60.5 81.74 C61.56 91.86, 63.79 103.56, 68.17 112.54 M62.35 81.91 C62.13 89.6, 64.76 97.22, 65.92 112.42" stroke="#000000" stroke-width="1" fill="none"></path></g></g><g stroke-linecap="round"><g transform="translate(805 131.79245283018867) rotate(0 67.55002459452487 52.01816744036506)"><path d="M0.36 0.26 C22.83 17.9, 111.28 87.25, 133.88 104.69 M-0.91 -0.65 C22 16.75, 113.24 85.65, 136.01 102.93" stroke="#000000" stroke-width="1" fill="none"></path></g><g transform="translate(805 131.79245283018867) rotate(0 67.55002459452487 52.01816744036506)"><path d="M107.77 92.24 C114.71 97.57, 121.35 99.34, 137.69 101.21 M107.51 94.14 C114.33 95.32, 119.46 97.3, 135.06 103.7" stroke="#000000" stroke-width="1" fill="none"></path></g><g transform="translate(805 131.79245283018867) rotate(0 67.55002459452487 52.01816744036506)"><path d="M120.15 75.87 C124.2 84.85, 128.12 90.22, 137.69 101.21 M119.9 77.77 C124.06 82.55, 126.4 88.21, 135.06 103.7" stroke="#000000" stroke-width="1" fill="none"></path></g></g></svg>